Coordinates
version=1
nRows=8
nColumns=60
inDegrees=yes

Units are S.I. units (second, meters, Newtons, ...)
If the header above contains a line with 'inDegrees', this indicates whether rotational values are in degrees (yes) or radians (no).

endheader
time	pelvis_tilt	pelvis_list	pelvis_rotation	pelvis_tx	pelvis_ty	pelvis_tz	hip_flexion_r	hip_adduction_r	hip_rotation_r	knee_angle_r_beta	knee_angle_r	ankle_angle_r	subtalar_angle_r	mtp_angle_r	hip_flexion_l	hip_adduction_l	hip_rotation_l	knee_angle_l_beta	knee_angle_l	ankle_angle_l	subtalar_angle_l	mtp_angle_l	L5_S1_Flex_Ext	L5_S1_Lat_Bending	L5_S1_axial_rotation	L4_L5_Flex_Ext	L4_L5_Lat_Bending	L4_L5_axial_rotation	L3_L4_Flex_Ext	L3_L4_Lat_Bending	L3_L4_axial_rotation	L2_L3_Flex_Ext	L2_L3_Lat_Bending	L2_L3_axial_rotation	L1_L2_Flex_Ext	L1_L2_Lat_Bending	L1_L2_axial_rotation	L1_T12_Flex_Ext	L1_T12_Lat_Bending	L1_T12_axial_rotation	Abs_r3	Abs_r2	Abs_r1	Abs_t1	Abs_t2	arm_flex_r	arm_add_r	arm_rot_r	elbow_flex_r	pro_sup_r	wrist_flex_r	wrist_dev_r	arm_flex_l	arm_add_l	arm_rot_l	elbow_flex_l	pro_sup_l	wrist_flex_l	wrist_dev_l
     87.39000000	     -0.19966823	     10.74899433	     90.03559965	      0.40495156	      0.94398054	      0.28871205	      0.17487415	     -5.24608108	      0.21520093	      0.28710139	    -16.44969767	      7.94343705	      0.00000000	      0.00000000	     -1.20763001	     -5.39939389	     -4.67237496	      0.23178786	    -13.28046624	      8.01986211	      0.00000000	      0.00000000	     -6.00762079	      0.00840572	      0.19227790	    -11.15675257	      0.01117961	      0.20429527	     -9.86992020	      0.02043767	      0.20429527	     -6.86610980	      0.02043767	      0.16824316	     -5.57867667	      0.01714095	      0.15622579	     -3.43275452	      0.01302046	      0.14420842	    -42.91183455	      0.09508720	      1.06939199	      0.00000000	      0.00000000	     58.32395902	    -26.54618097	     22.00203392	     60.03208288	     57.10334623	      5.60681155	     20.76556620	     64.41857709	    -18.61781744	     25.77096618	     50.38951807	     56.48657904	      6.31658635	     18.95464075
     87.40000000	     -0.27594408	     10.61881624	     90.17665622	      0.40481702	      0.94407846	      0.28950346	      0.40656670	     -5.30123151	      0.31474516	      0.28949113	    -16.58662011	      7.77735271	      0.00000000	      0.00000000	     -0.99933625	     -5.31776228	     -4.44912305	      0.23126316	    -13.25040303	      7.73707794	      0.00000000	      0.00000000	     -6.04824745	     -0.00100860	      0.18163296	    -11.23220033	     -0.00134143	      0.19298502	     -9.93666573	     -0.00245230	      0.19298502	     -6.91254201	     -0.00245230	      0.15892884	     -5.61640258	     -0.00205673	      0.14757678	     -3.45596859	     -0.00156231	      0.13622472	    -43.20202669	     -0.01140943	      1.01018801	      0.00000000	      0.00000000	     59.44718842	    -26.13156214	     22.11446382	     58.55489599	     57.07163028	      5.64936490	     20.74074330	     65.61762821	    -17.92625649	     25.70482912	     48.95679010	     56.43588788	      6.24865031	     18.94271400
     87.41000000	     -0.31800124	     10.45419478	     90.34388173	      0.40463681	      0.94409397	      0.29018542	      0.63294062	     -5.34011694	      0.21874649	      0.29026633	    -16.63103582	      7.69789975	      0.00000000	      0.00000000	     -0.80764293	     -5.27793296	     -4.39074551	      0.22870460	    -13.10380844	      7.54119407	      0.00000000	      0.00000000	     -6.07348029	     -0.00474648	      0.16497634	    -11.27906025	     -0.00631282	      0.17528736	     -9.97812077	     -0.01154059	      0.17528736	     -6.94138063	     -0.01154059	      0.14435430	     -5.63983380	     -0.00967902	      0.13404327	     -3.47038664	     -0.00735230	      0.12373225	    -43.38226238	     -0.05369313	      0.91754889	      0.00000000	      0.00000000	     60.65764935	    -25.68555369	     22.50376016	     56.80679663	     57.02439391	      5.75507171	     20.60429780	     66.86042889	    -17.24865769	     25.93055896	     47.17498390	     56.46648604	      6.20738212	     18.84729066
     87.42000000	     -0.34687692	     10.30713963	     90.50290096	      0.40442814	      0.94409884	      0.29083584	      0.81269030	     -5.36660024	      0.14886485	      0.29012287	    -16.62281587	      7.67105537	      0.00000000	      0.00000000	     -0.62647231	     -5.24821290	     -4.35129342	      0.22648352	    -12.97654965	      7.45713057	      0.00000000	      0.00000000	     -6.10590158	     -0.00661955	      0.14424714	    -11.33926983	     -0.00880400	      0.15326259	    -10.03138571	     -0.01609476	      0.15326259	     -6.97843492	     -0.01609476	      0.12621625	     -5.66994021	     -0.01349858	      0.11720080	     -3.48891216	     -0.01025368	      0.10818536	    -43.61384441	     -0.07488163	      0.80225934	      0.00000000	      0.00000000	     61.93583344	    -25.35530222	     23.26254451	     55.05045364	     56.82849358	      6.21850865	     19.89839180	     68.08706574	    -16.78506589	     26.51706189	     45.60147070	     56.61202911	      6.35903031	     18.31164166
     87.43000000	     -0.34506916	     10.12138501	     90.64090856	      0.40423559	      0.94410332	      0.29166990	      1.14652490	     -5.35233184	      0.18632308	      0.29345210	    -16.81356656	      7.43908689	      0.00000000	      0.00000000	     -0.31850153	     -5.24138250	     -4.09554302	      0.22734218	    -13.02574763	      7.15984958	      0.00000000	      0.00000000	     -6.15459933	     -0.00576534	      0.14878407	    -11.42970642	     -0.00766790	      0.15808308	    -10.11139124	     -0.01401785	      0.15808308	     -7.03409158	     -0.01401785	      0.13018606	     -5.71516094	     -0.01175668	      0.12088706	     -3.51673806	     -0.00893051	      0.11158805	    -43.96168758	     -0.06521868	      0.82749238	      0.00000000	      0.00000000	     63.01501227	    -25.17200865	     23.39577452	     53.78459811	     56.73636741	      6.31092303	     19.68471883	     69.14216630	    -16.31775041	     26.71396047	     44.77999821	     56.62775767	      6.38147920	     18.17252340
     87.44000000	     -0.35652314	      9.85652809	     90.79011956	      0.40401898	      0.94388761	      0.29232098	      1.46239247	     -5.37934550	      0.04029467	      0.29359132	    -16.82154338	      7.42492249	      0.00000000	      0.00000000	     -0.00086155	     -5.23342272	     -4.10498762	      0.22519741	    -12.90286116	      7.12357043	      0.00000000	      0.00000000	     -6.16074575	     -0.00690898	      0.11250526	    -11.44112093	     -0.00918895	      0.11953684	    -10.12148919	     -0.01679850	      0.11953684	     -7.04111632	     -0.01679850	      0.09844210	     -5.72086850	     -0.01408880	      0.09141052	     -3.52025012	     -0.01070202	      0.08437895	    -44.00559081	     -0.07815581	      0.62572051	      0.00000000	      0.00000000	     64.42684548	    -24.62737775	     24.36184001	     51.57405856	     56.49212664	      6.66737130	     19.04887145	     70.37473873	    -15.96398202	     27.57310167	     42.92254974	     56.66124425	      6.50035516	     17.80956680
     87.45000000	     -0.33641407	      9.67607803	     90.86309481	      0.40387650	      0.94378694	      0.29302219	      1.70655556	     -5.35542919	     -0.02146695	      0.29385854	    -16.83685391	      7.28828067	      0.00000000	      0.00000000	      0.22944511	     -5.24423057	     -4.03387559	      0.22419238	    -12.84527701	      6.96795905	      0.00000000	      0.00000000	     -6.19249921	     -0.00732593	      0.08940462	    -11.50009028	     -0.00974348	      0.09499241	    -10.17365695	     -0.01781226	      0.09499241	     -7.07740734	     -0.01781226	      0.07822905	     -5.75035476	     -0.01493903	      0.07264126	     -3.53839405	     -0.01134786	      0.06705347	    -44.23240259	     -0.08287236	      0.49724170	      0.00000000	      0.00000000	     65.94916611	    -24.31266417	     25.90756009	     49.35068927	     54.98174608	      8.76528281	     15.33869053	     71.36569715	    -15.99465679	     28.79452663	     42.10218589	     55.89357930	      7.24097363	     15.73525814
     87.46000000	     -0.34838279	      9.36374618	     90.90087262	      0.40372903	      0.94347086	      0.29374929	      2.10279131	     -5.37740577	      0.03224362	      0.29425621	    -16.85963902	      7.22033920	      0.00000000	      0.00000000	      0.63559725	     -5.21376628	     -3.94483155	      0.22446310	    -12.86078837	      6.90182597	      0.00000000	      0.00000000	     -6.20569976	     -0.00965457	      0.10323438	    -11.52460503	     -0.01284058	      0.10968653	    -10.19534414	     -0.02347412	      0.10968653	     -7.09249426	     -0.02347412	      0.09033008	     -5.76261280	     -0.01968760	      0.08387793	     -3.54593684	     -0.01495493	      0.07742579	    -44.32669282	     -0.10921441	      0.57415865	      0.00000000	      0.00000000	     67.11300067	    -24.01474092	     26.39145298	     47.65081859	     54.85389313	      9.02475946	     15.04874484	     72.42506829	    -15.55607092	     29.45824720	     40.94391161	     55.75234951	      7.18870420	     15.66460183
